<?xml version="1.0" encoding="utf-8"?><!-- Uploaded to: SVG Repo, www.svgrepo.com, Generator: SVG Repo Mixer Tools -->
<svg width="800px" height="800px" viewBox="0 0 100 100" xmlns="http://www.w3.org/2000/svg"><title>Ecommerce copia 3</title><path d="M28.79,42.48H8.74l3.34-10H28.79v10Zm-17.28-2H26.79v-6H13.52Z" fill="#495771"/><polygon points="13.9 74.93 0.18 47.48 76.21 47.48 80.21 40.48 99.31 40.48 84.72 74.87 82.87 74.09 96.28 42.48 81.37 42.48 77.37 49.48 3.41 49.48 15.69 74.04 13.9 74.93" fill="#495771"/><polygon points="8.74 48.8 6.84 48.17 15.07 23.48 46.79 23.48 46.79 48.48 44.79 48.48 44.79 25.48 16.52 25.48 8.74 48.8" fill="#495771"/><path d="M89.2,76.52a10.85,10.85,0,0,1-9.55-5.07A11.09,11.09,0,0,1,70,76.52a10.85,10.85,0,0,1-9.55-5.07,11.09,11.09,0,0,1-9.63,5.07,10.85,10.85,0,0,1-9.55-5.07,11.09,11.09,0,0,1-9.63,5.07,10.85,10.85,0,0,1-9.55-5.07,11.09,11.09,0,0,1-9.63,5.07c-5.86,0-10.62-4.05-10.62-9H3.91c0,3.84,3.84,7,8.56,7a8.91,8.91,0,0,0,7.76-4,2.12,2.12,0,0,1,3.66,0,8.91,8.91,0,0,0,7.76,4,8.91,8.91,0,0,0,7.76-4,2.12,2.12,0,0,1,3.66,0,8.91,8.91,0,0,0,7.76,4,8.91,8.91,0,0,0,7.76-4,2.12,2.12,0,0,1,3.66,0,9.49,9.49,0,0,0,15.52,0,2.12,2.12,0,0,1,3.66,0,8.91,8.91,0,0,0,7.76,4c4.72,0,8.56-3.13,8.56-7h2.06C99.82,72.46,95.06,76.52,89.2,76.52Z" fill="#495771"/><polygon points="73.56 29.64 73.56 39.64 69.06 35.47 64.56 39.64 64.56 29.64 73.56 29.64" fill="#9ae3f0"/><path d="M58.05,48.24h-2V28.74a1,1,0,0,1,1-1h24a1,1,0,0,1,1,1v12h-2v-11h-22v18.5Z" fill="#495771"/><rect width="100" height="100" fill="none"/></svg>