<?xml version="1.0" standalone="no"?>
<!DOCTYPE svg PUBLIC "-//W3C//DTD SVG 20010904//EN"
 "http://www.w3.org/TR/2001/REC-SVG-20010904/DTD/svg10.dtd">
<svg version="1.0" xmlns="http://www.w3.org/2000/svg"
 width="593.000000pt" height="627.000000pt" viewBox="0 0 593.000000 627.000000"
 preserveAspectRatio="xMidYMid meet">

<g transform="translate(0.000000,627.000000) scale(0.100000,-0.100000)"
fill="#000000" stroke="none">
<path d="M5489 5663 l-26 -4 -6 -232 c-56 -1998 -768 -3717 -1832 -4420 -213
-141 -486 -254 -710 -293 -137 -24 -406 -25 -530 -1 -377 73 -691 240 -1038
551 -369 330 -751 914 -987 1508 -23 59 -48 111 -54 116 -12 9 -180 1 -190 -9
-22 -21 210 -583 344 -835 214 -401 428 -700 695 -973 372 -380 760 -607 1186
-693 97 -19 144 -23 314 -22 177 0 214 3 326 27 428 90 802 314 1184 708 414
426 765 1031 1021 1756 218 620 364 1336 424 2073 11 144 30 558 30 673 l0 77
-62 -1 c-35 -1 -75 -4 -89 -6z"/>
</g>
</svg>
